<svg xmlns="http://www.w3.org/2000/svg" viewBox="0 0 1024 1024">
  <defs>
    <linearGradient id="bg" x1="160" y1="80" x2="880" y2="960" gradientUnits="userSpaceOnUse">
      <stop offset="0" stop-color="#F7FFFC"/>
      <stop offset="0.48" stop-color="#DDF5ED"/>
      <stop offset="1" stop-color="#7ECDB3"/>
    </linearGradient>
    <radialGradient id="glow" cx="50%" cy="42%" r="52%">
      <stop offset="0" stop-color="#FFFFFF" stop-opacity="0.96"/>
      <stop offset="0.68" stop-color="#EAF8F3" stop-opacity="0.7"/>
      <stop offset="1" stop-color="#BFEADB" stop-opacity="0.25"/>
    </radialGradient>
    <filter id="shadow" x="-20%" y="-20%" width="140%" height="140%">
      <feDropShadow dx="0" dy="28" stdDeviation="30" flood-color="#367B68" flood-opacity="0.22"/>
    </filter>
  </defs>
  <rect width="1024" height="1024" rx="230" fill="#88D2BA"/>
  <rect x="70" y="58" width="884" height="884" rx="210" fill="url(#bg)" filter="url(#shadow)"/>
  <rect x="116" y="104" width="792" height="792" rx="176" fill="url(#glow)"/>
  <path d="M228 712C334 808 490 832 635 776C742 735 825 652 866 552C827 744 668 878 482 870C357 864 260 809 196 724C188 713 215 700 228 712Z" fill="#FFFFFF" opacity="0.46"/>
  <circle cx="512" cy="492" r="244" fill="#DFF5EC"/>
  <circle cx="512" cy="492" r="174" fill="#BEEAD9"/>
  <circle cx="512" cy="492" r="104" fill="#7CCDB3"/>
  <path d="M512 248A244 244 0 0 1 756 492" fill="none" stroke="#5DA58F" stroke-width="52" stroke-linecap="round"/>
  <path d="M512 492L512 348" stroke="#F8FFFC" stroke-width="44" stroke-linecap="round"/>
  <path d="M512 492L626 558" stroke="#F8FFFC" stroke-width="44" stroke-linecap="round"/>
  <circle cx="512" cy="492" r="38" fill="#F8FFFC"/>
  <circle cx="756" cy="492" r="24" fill="#4F917E" opacity="0.7"/>
</svg>
